#!OML:ASF E:\VariousWalksJay\Project 1\Capture day 1\Session 1\Actor2.ASF
:FULLY-SPECIFIED
:DEGREES
745
root 4.56295 16.4608 16.7316 188.5 -19.9384 -171.22
lowerback -2.02954 -1.15298 3.73778
upperback 1.80933 -1.70333 -5.02818
thorax 2.75738 -0.792058 -7.43868
lowerneck -0.550962 -6.15514 -7.33617
upperneck 17.2241 -14.1945 21.0167
head 7.3532 -6.9564 7.037
rclavicle 0 -7.63333e-014
rhumerus -39.9545 41.6283 -105.497
rradius 62.6135
rwrist -4.2368
rhand -2.61908 -10.0904
rfingers 7.12502
rthumb 23.0795 -38.7282
lclavicle 0 -7.63333e-014
lhumerus -14.6522 -20.4526 77.8512
lradius 37.5537
lwrist 13.3283
lhand -16.5485 -8.40113
lfingers 7.12502
lthumb 9.67095 21.3569
rfemur 8.67114 -3.40057 39.3317
rtibia 12.1444
rfoot -20.9817 -8.26503
rtoes -10.0353
lfemur -45.2826 -8.03743 -5.87613
ltibia 48.4348
lfoot -16.0306 4.04592
ltoes -8.32169
746
root 4.57069 16.4797 16.6284 188.923 -19.6667 -171.222
lowerback -2.31797 -1.2032 3.62003
upperback 1.65048 -1.79682 -5.47483
thorax 2.73193 -0.855816 -7.86116
lowerneck -0.577091 -6.278 -7.49336
upperneck 16.9573 -14.1056 20.681
head 7.24112 -6.91691 6.95016
rclavicle 1.19271e-014 6.99722e-014
rhumerus -40.5541 41.8235 -106.001
rradius 62.6053
rwrist -4.21054
rhand -2.29536 -10.066
rfingers 7.12502
rthumb 23.3901 -38.6646
lclavicle 1.19271e-014 6.99722e-014
lhumerus -14.1149 -20.6069 77.4813
lradius 37.4683
lwrist 13.2408
lhand -16.4625 -8.44947
lfingers 7.12502
lthumb 9.75395 21.3046
rfemur 8.72094 -3.31568 39.3124
rtibia 11.8488
rfoot -20.2275 -7.81112
rtoes -10.6012
lfemur -45.211 -7.75685 -5.71999
ltibia 48.3773
lfoot -16.3726 4.12021
ltoes -8.32278
747
root 4.57988 16.5 16.5287 189.284 -19.3655 -171.197
lowerback -2.5235 -1.22193 3.52326
upperback 1.50584 -1.85134 -5.90763
thorax 2.67962 -0.902147 -8.27979
lowerneck -0.609918 -6.41179 -7.64723
upperneck 16.6636 -14.0179 20.3245
head 7.12119 -6.87587 6.85573
rclavicle -1.59028e-015 1.27222e-014
rhumerus -41.0859 42.0035 -106.411
rradius 62.6496
rwrist -4.38178
rhand -2.01967 -10.0773
rfingers 7.12502
rthumb 23.6545 -38.642
lclavicle -1.59028e-015 1.27222e-014
lhumerus -13.5768 -20.7478 77.0731
lradius 37.4073
lwrist 13.1406
lhand -16.373 -8.47891
lfingers 7.12502
lthumb 9.84034 21.2711
rfemur 8.8194 -3.22685 39.3047
rtibia 11.5441
rfoot -19.4353 -7.34633
rtoes -11.1613
lfemur -45.0715 -7.4795 -5.54588
ltibia 48.2943
lfoot -16.6971 4.2207
ltoes -8.29852
748
root 4.59062 16.5209 16.4324 189.572 -19.039 -171.126
lowerback -2.64198 -1.20973 3.46145
upperback 1.37963 -1.86691 -6.3168
thorax 2.60307 -0.929856 -8.69158
lowerneck -0.645224 -6.55132 -7.80139
upperneck 16.3509 -13.9289 19.9492
head 6.99521 -6.8327 6.7559
rclavicle 1.27222e-014 -2.22639e-014
rhumerus -41.5352 42.1773 -106.724
rradius 62.7316
rwrist -4.66807
rhand -1.84465 -10.1006
rfingers 7.12502
rthumb 23.8224 -38.6435
lclavicle 1.27222e-014 -2.22639e-014
lhumerus -13.0399 -20.8608 76.6349
lradius 37.3783
lwrist 13.0282
lhand -16.2779 -8.49064
lfingers 7.12502
lthumb 9.93207 21.2551
rfemur 8.98312 -3.13902 39.3307
rtibia 11.2069
rfoot -18.5882 -6.86109
rtoes -11.6719
lfemur -44.8702 -7.2056 -5.3314
ltibia 48.2016
lfoot -17.0039 4.34771
ltoes -8.25992
749
root 4.60249 16.5415 16.3391 189.785 -18.685 -170.992
lowerback -2.68392 -1.16778 3.4458
upperback 1.27261 -1.84398 -6.69273
thorax 2.50966 -0.937809 -9.09279
lowerneck -0.676624 -6.69333 -7.9597
upperneck 16.028 -13.8363 19.5478
head 6.86428 -6.78722 6.64958
rclavicle -2.38542e-014 6.99722e-014
rhumerus -41.8936 42.3503 -106.933
rradius 62.8473
rwrist -5.0253
rhand -1.75845 -10.123
rfingers 7.12502
rthumb 23.9051 -38.6551
lclavicle -2.38542e-014 6.99722e-014
lhumerus -12.517 -20.9451 76.1745
lradius 37.3949
lwrist 12.927
lhand -16.1809 -8.49668
lfingers 7.12502
lthumb 10.0256 21.2445
rfemur 9.21799 -3.06638 39.3989
rtibia 10.8319
rfoot -17.6847 -6.33729
rtoes -12.1194
lfemur -44.6123 -6.93463 -5.06094
ltibia 48.1108
lfoot -17.2996 4.50705
ltoes -8.20635
750
root 4.61508 16.562 16.248 189.937 -18.2959 -170.809
lowerback -2.66445 -1.09251 3.46685
upperback 1.18393 -1.77699 -7.04045
thorax 2.40902 -0.922782 -9.48363
lowerneck -0.692373 -6.8388 -8.1167
upperneck 15.6974 -13.7464 19.1221
head 6.72787 -6.74354 6.53648
rclavicle -4.21423e-014 -3.81667e-014
rhumerus -42.1414 42.5001 -107.031
rradius 62.9862
rwrist -5.37303
rhand -1.72123 -10.1276
rfingers 7.12502
rthumb 23.9407 -38.6551
lclavicle -4.21423e-014 -3.81667e-014
lhumerus -12.0179 -21.0156 75.6939
lradius 37.4687
lwrist 12.8478
lhand -16.0938 -8.48961
lfingers 7.12502
lthumb 10.1097 21.2475
rfemur 9.51236 -3.01187 39.4926
rtibia 10.4304
rfoot -16.725 -5.7682
rtoes -12.5016
lfemur -44.3 -6.66641 -4.74713
ltibia 48.0256
lfoot -17.5922 4.7072
ltoes -8.14246
751
root 4.62807 16.582 16.1583 190.041 -17.8753 -170.588
lowerback -2.60666 -0.986477 3.51044
upperback 1.11623 -1.66788 -7.35865
thorax 2.31792 -0.8849 -9.85535
lowerneck -0.67639 -6.98318 -8.2735
upperneck 15.3569 -13.6561 18.6747
head 6.58224 -6.70153 6.41895
rclavicle 7.15625e-014 1.62208e-013
rhumerus -42.2578 42.613 -107.003
rradius 63.1364
rwrist -5.63712
rhand -1.68227 -10.11
rfingers 7.12502
rthumb 23.9781 -38.6325
lclavicle 7.15625e-014 1.62208e-013
lhumerus -11.541 -21.0667 75.1993
lradius 37.5932
lwrist 12.7836
lhand -16.0326 -8.47834
lfingers 7.12502
lthumb 10.1687 21.2559
rfemur 9.84834 -2.97978 39.6007
rtibia 10.0275
rfoot -15.7112 -5.15897
rtoes -12.7923
lfemur -43.9372 -6.4069 -4.40106
ltibia 47.9461
lfoot -17.8907 4.95268
ltoes -8.06472
752
root 4.64137 16.6012 16.0697 190.112 -17.4367 -170.348
lowerback -2.52765 -0.855916 3.55613
upperback 1.07037 -1.5238 -7.6475
thorax 2.24674 -0.827389 -10.1967
lowerneck -0.629717 -7.12796 -8.42777
upperneck 15.0206 -13.572 18.2005
head 6.4326 -6.66441 6.29439
rclavicle 2.38542e-015 1.11319e-013
rhumerus -42.2436 42.6792 -106.845
rradius 63.2927
rwrist -5.80563
rhand -1.66484 -10.0581
rfingers 7.12502
rthumb 23.9948 -38.5785
lclavicle 2.38542e-015 1.11319e-013
lhumerus -11.0873 -21.093 74.6965
lradius 37.7501
lwrist 12.7208
lhand -16.0055 -8.50307
lfingers 7.12502
lthumb 10.1949 21.2299
rfemur 10.191 -2.95651 39.7129
rtibia 9.67183
rfoot -14.6737 -4.54201
rtoes -13.0197
lfemur -43.5315 -6.16573 -4.04091
ltibia 47.8678
lfoot -18.1995 5.24035
ltoes -7.97578
753
root 4.6544 16.6196 15.9815 190.153 -17.0085 -170.112
lowerback -2.43002 -0.714161 3.58827
upperback 1.0539 -1.36192 -7.91051
thorax 2.202 -0.758608 -10.5028
lowerneck -0.556764 -7.2684 -8.58388
upperneck 14.7024 -13.4951 17.7119
head 6.28538 -6.63264 6.16745
rclavicle 7.95139e-015 1.65389e-013
rhumerus -42.0893 42.692 -106.556
rradius 63.4438
rwrist -5.87222
rhand -1.67034 -9.98179
rfingers 7.12502
rthumb 23.9895 -38.5028
lclavicle 7.95139e-015 1.65389e-013
lhumerus -10.6453 -21.0936 74.1842
lradius 37.9164
lwrist 12.637
lhand -16.0345 -8.56955
lfingers 7.12502
lthumb 10.1668 21.1648
rfemur 10.5058 -2.9528 39.8121
rtibia 9.42967
rfoot -13.6516 -3.93476
rtoes -13.2353
lfemur -43.0824 -5.96878 -3.6911
ltibia 47.7861
lfoot -18.5149 5.5726
ltoes -7.92015
